#N canvas -8 -8 1280 677 12;
#X text 759 86 pitch recognition;
#X text 621 39 Microphone Input;
#X floatatom 657 178 5 0 0 0 - - -, f 5;
#X text 651 215 Amplitude;
#X obj 571 90 fiddle~ 1024 1 20 3;
#X obj 393 171 print pitch;
#X obj 492 173 print attack;
#X obj 71 27 loadbang;
#X msg 27 57 57;
#X floatatom 25 81 5 0 0 0 - - -, f 5;
#X obj 24 105 mtof;
#X floatatom 24 130 5 0 0 0 - - -, f 5;
#X obj 24 152 sig~;
#X obj 22 183 phasor~;
#X msg 124 79 1;
#X floatatom 162 135 5 0 0 0 - - -, f 5;
#X obj 162 157 sig~;
#X obj 113 207 *~;
#X msg 178 77 0;
#X obj 567 42 adc~;
#X text 21 237 Test input pitch;
#X text 17 475 --don't forget to turn on the audio for it to work;
#X connect 4 0 5 0;
#X connect 4 1 6 0;
#X connect 4 3 2 0;
#X connect 7 0 8 0;
#X connect 7 0 14 0;
#X connect 8 0 9 0;
#X connect 9 0 10 0;
#X connect 10 0 11 0;
#X connect 11 0 12 0;
#X connect 12 0 13 0;
#X connect 13 0 17 0;
#X connect 14 0 15 0;
#X connect 15 0 16 0;
#X connect 16 0 17 1;
#X connect 18 0 15 0;
#X connect 19 0 4 0;
#X connect 19 1 4 0;
