#N canvas 0 50 1280 677 10;
#X floatatom 153 339 5 0 0 0 - - -, f 5;
#X obj 153 358 osc~;
#X obj 130 443 s~ VU;
#X msg 196 303 0;
#X text 233 273 start;
#X text 232 301 stop;
#X text 540 43 Microphone Input;
#X floatatom 576 253 5 0 0 0 - - -, f 5;
#X text 582 268 Amplitude;
#X obj 352 239 print pitch;
#X obj 424 239 print attack;
#X obj 511 242 unpack;
#X floatatom 500 286 5 0 0 0 - - -, f 5;
#X floatatom 554 289 5 0 0 0 - - -, f 5;
#X obj 627 215 route 1 2 3 4;
#X obj 665 281 unpack;
#X floatatom 666 308 5 0 0 0 - - -, f 5;
#X floatatom 700 328 5 0 0 0 - - -, f 5;
#X obj 728 277 unpack;
#X floatatom 729 304 5 0 0 0 - - -, f 5;
#X floatatom 763 324 5 0 0 0 - - -, f 5;
#X obj 786 273 unpack;
#X floatatom 787 300 5 0 0 0 - - -, f 5;
#X floatatom 821 320 5 0 0 0 - - -, f 5;
#X obj 490 165 fiddle~ 1024 1 20 3;
#X msg 197 274 175;
#X floatatom 371 81 5 0 0 0 - - -, f 5;
#X obj 371 100 osc~;
#X msg 414 45 0;
#X text 451 15 start;
#X text 450 43 stop;
#X floatatom 447 355 5 0 0 0 - - -, f 5;
#X obj 476 397 osc~;
#X obj 353 434 *~;
#X obj 351 486 dac~;
#X msg 415 16 250;
#X obj 648 379 +;
#X connect 0 0 1 0;
#X connect 1 0 2 0;
#X connect 1 0 33 0;
#X connect 3 0 0 0;
#X connect 11 0 12 0;
#X connect 11 1 13 0;
#X connect 12 0 36 0;
#X connect 13 0 36 1;
#X connect 14 0 15 0;
#X connect 14 1 18 0;
#X connect 14 2 21 0;
#X connect 15 0 16 0;
#X connect 15 1 17 0;
#X connect 18 0 19 0;
#X connect 18 1 20 0;
#X connect 21 0 22 0;
#X connect 21 1 23 0;
#X connect 24 0 9 0;
#X connect 24 1 10 0;
#X connect 24 2 11 0;
#X connect 24 3 7 0;
#X connect 24 4 14 0;
#X connect 25 0 0 0;
#X connect 26 0 27 0;
#X connect 27 0 24 0;
#X connect 28 0 26 0;
#X connect 31 0 32 0;
#X connect 32 0 33 1;
#X connect 33 0 34 0;
#X connect 33 0 34 1;
#X connect 35 0 26 0;
#X connect 36 0 31 0;
