#N canvas 429 206 728 336 10;
#X obj 43 42 tgl 50 0 empty empty Audio:on/off 17 7 0 10 -260097 -1
-1 0 1;
#X msg 44 118 \; pd dsp \$1;
#X obj 212 64 adc~;
#X obj 216 98 fiddle~ 1024 1 20 3;
#X obj 149 123 print pitch;
#X obj 419 132 route 1 2 3;
#X obj 420 161 unpack;
#X floatatom 453 192 5 0 0 0 - - -, f 5;
#X obj 265 142 unpack;
#X floatatom 261 173 5 0 0 0 - - -, f 5;
#X floatatom 294 174 5 0 0 0 - - -, f 5;
#X obj 217 158 int;
#X floatatom 218 183 5 0 0 0 - - -, f 5;
#X obj 218 202 pack 0 100;
#X obj 218 224 line;
#X floatatom 218 246 5 0 0 0 - - -, f 5;
#X obj 334 163 int;
#X floatatom 335 188 5 0 0 0 - - -, f 5;
#X obj 335 207 pack 0 100;
#X obj 335 229 line;
#X floatatom 335 251 5 0 0 0 - - -, f 5;
#X floatatom 421 213 5 0 0 0 - - -, f 5;
#X obj 423 242 osc~;
#X obj 425 277 dac~;
#X connect 0 0 1 0;
#X connect 2 0 3 0;
#X connect 3 0 4 0;
#X connect 3 0 11 0;
#X connect 3 2 8 0;
#X connect 3 3 16 0;
#X connect 3 4 5 0;
#X connect 5 0 6 0;
#X connect 6 0 21 0;
#X connect 6 1 7 0;
#X connect 8 0 9 0;
#X connect 8 1 10 0;
#X connect 11 0 12 0;
#X connect 12 0 13 0;
#X connect 13 0 14 0;
#X connect 14 0 15 0;
#X connect 16 0 17 0;
#X connect 17 0 18 0;
#X connect 18 0 19 0;
#X connect 19 0 20 0;
#X connect 21 0 22 0;
#X connect 22 0 23 0;
