#N canvas 71 86 1035 529 10;
#X obj 166 47 tgl 50 0 empty empty Audio:on/off 17 7 0 10 -260097 -228856
-1 0 1;
#X msg 166 108 \; pd dsp \$1;
#X obj 333 56 vsl 20 251 0 250 0 0 empty empty Input_Frequency 0 -9
0 10 -261682 -1 -1 0 1;
#X obj 393 340 osc~;
#X obj 252 360 print input:;
#X obj 462 51 adc~;
#X obj 461 95 fiddle~ 1024 1 20 3;
#X obj 621 174 unpack;
#X floatatom 623 208 5 0 0 0 - - -, f 5;
#X floatatom 659 207 5 0 0 0 - - -, f 5;
#X floatatom 252 337 5 0 0 0 - - -, f 5;
#X obj 391 120 print pitch:;
#X obj 467 157 unpack;
#X floatatom 461 182 5 0 0 0 - - -, f 5;
#X floatatom 500 181 5 0 0 0 - - -, f 5;
#X obj 620 142 route 1 2 3;
#X floatatom 543 157 5 0 0 0 - - -, f 5;
#X text 633 117 Main peak;
#X text 542 174 Amplitude;
#X text 457 203 pitch;
#X text 378 289 Oscillate at input frq;
#X obj 625 315 osc~;
#X obj 515 380 *~;
#X obj 509 419 dac~;
#X connect 0 0 1 0;
#X connect 2 0 10 0;
#X connect 2 0 3 0;
#X connect 5 0 6 0;
#X connect 6 0 11 0;
#X connect 6 2 12 0;
#X connect 6 3 16 0;
#X connect 6 4 15 0;
#X connect 7 0 8 0;
#X connect 7 1 9 0;
#X connect 8 0 21 0;
#X connect 10 0 4 0;
#X connect 12 0 13 0;
#X connect 12 1 14 0;
#X connect 15 0 7 0;
#X connect 21 0 22 1;
#X connect 22 0 23 0;
#X connect 22 0 23 1;
#X coords 0 0 5 5 0 0 0;
